# xmcd CD database file
#
# Track frame offsets:
#	150
#	21407
#	42560
#	67102
#	83972
#	113102
#	138347
#	157490
#	178227
#	198790
#	221412
#	249085
#	270840
#	288690
#	307757
#
# Disc length: 4422 seconds
#
# Revision: 6
# Processed by: cddbd v1.5.1PL0 Copyright (c) Steve Scherf et al.
# Submitted via: CDex 1.51
#
DISCID=dc11440f
DTITLE=George Michael - Ladies And Gentlemen [CD 2)
DYEAR=1998
DGENRE=Blues
TTITLE0=Outside
TTITLE1=As
TTITLE2=Fastlove
TTITLE3=Too Funky
TTITLE4=Freedom 90
TTITLE5=Star People 97
TTITLE6=Killer - Papa Was A Rollin' Stone
TTITLE7=I Want Your Sex (Part II)
TTITLE8=The Strangest Thing 97
TTITLE9=Fantasy
TTITLE10=Spinning The Wheel
TTITLE11=Waiting For That Day
TTITLE12=I Knew You Were Waiting (For Me)
TTITLE13=Faith
TTITLE14=Somebody To Love
EXTD=Epic 491705\nEuropean release\n\nCompare tracks with US release\nEpic E2K 69635\nAs, The Strangest Thing, and Fantasy removed\nMonkey, You Can't Always Get What You Want, and Hard Day added YEAR: 1998
EXTT0=
EXTT1=
EXTT2=
EXTT3=
EXTT4=
EXTT5=
EXTT6=
EXTT7=
EXTT8=
EXTT9=
EXTT10=
EXTT11=
EXTT12=
EXTT13=
EXTT14=
PLAYORDER=
